<?xml version="1.0" encoding="utf-8"?>
<!-- Generator: Adobe Illustrator 21.1.0, SVG Export Plug-In . SVG Version: 6.00 Build 0)  -->
<svg version="1.1" id="Layer_1" xmlns="http://www.w3.org/2000/svg" xmlns:xlink="http://www.w3.org/1999/xlink" x="0px" y="0px"
	 viewBox="0 0 500 105" style="enable-background:new 0 0 500 105;" xml:space="preserve">
<style type="text/css">
	.st0{fill:none;stroke:url(#SVGID_1_);stroke-width:5;stroke-miterlimit:10;}
	.st1{fill:url(#SVGID_2_);}
	.st2{fill:url(#SVGID_3_);}
	.st3{fill:url(#SVGID_4_);}
	.st4{fill:url(#SVGID_5_);}
	.st5{fill:url(#SVGID_6_);}
	.st6{fill:url(#SVGID_7_);}
	.st7{fill:url(#SVGID_8_);}
	.st8{fill:url(#SVGID_9_);}
	.st9{fill:url(#SVGID_10_);}
	.st10{fill:url(#SVGID_11_);}
	.st11{fill:url(#SVGID_12_);}
	.st12{fill:url(#SVGID_13_);}
	.st13{fill:url(#SVGID_14_);}
</style>
<g>
	<g>
		<rect width="500" height="105"/>
	</g>
	<g>
		<linearGradient id="SVGID_1_" gradientUnits="userSpaceOnUse" x1="236.4649" y1="52.9954" x2="482.0438" y2="52.9954">
			<stop  offset="0" style="stop-color:#B47A1A"/>
			<stop  offset="5.284686e-02" style="stop-color:#B9811E"/>
			<stop  offset="0.1288" style="stop-color:#C69429"/>
			<stop  offset="0.2187" style="stop-color:#DCB33C"/>
			<stop  offset="0.3185" style="stop-color:#FADE56"/>
			<stop  offset="0.3333" style="stop-color:#FFE55A"/>
			<stop  offset="0.5161" style="stop-color:#FFEC88"/>
			<stop  offset="0.6613" style="stop-color:#FFE55A"/>
			<stop  offset="1" style="stop-color:#B47A1A"/>
		</linearGradient>
		<rect x="239" y="19.8" class="st0" width="240.6" height="66.3"/>
	</g>
	<g>
		
			<linearGradient id="SVGID_2_" gradientUnits="userSpaceOnUse" x1="227.717" y1="29.4048" x2="227.717" y2="3.3701" gradientTransform="matrix(4.489659e-11 -1 1 4.489659e-11 196.8855 293.0588)">
			<stop  offset="0" style="stop-color:#B47A1A"/>
			<stop  offset="5.284686e-02" style="stop-color:#B9811E"/>
			<stop  offset="0.1288" style="stop-color:#C69429"/>
			<stop  offset="0.2187" style="stop-color:#DCB33C"/>
			<stop  offset="0.3185" style="stop-color:#FADE56"/>
			<stop  offset="0.3333" style="stop-color:#FFE55A"/>
			<stop  offset="0.5161" style="stop-color:#FFEC88"/>
			<stop  offset="0.6613" style="stop-color:#FFE55A"/>
			<stop  offset="1" style="stop-color:#B47A1A"/>
		</linearGradient>
		<path class="st1" d="M225.3,72.5c-0.7,1.4-1.8,2.3-3.5,2.7c-1.7,0.4-4.5,0.6-8.5,0.6c-4,0-6.8-0.2-8.5-0.6
			c-1.7-0.4-2.8-1.3-3.5-2.7c-0.7-1.4-1-3.8-1-7.2c0-3.4,0.3-5.7,1-7.2c0.7-1.4,1.8-2.3,3.5-2.7c1.7-0.4,4.5-0.6,8.5-0.6
			c4,0,6.9,0.2,8.5,0.6c1.7,0.4,2.8,1.3,3.5,2.7c0.7,1.4,1,3.8,1,7.2C226.3,68.7,226,71.1,225.3,72.5z M222.9,60.2
			c-0.3-0.9-1.1-1.5-2.4-1.7c-1.3-0.3-3.7-0.4-7.2-0.4c-3.5,0-5.9,0.1-7.2,0.4c-1.3,0.3-2.1,0.8-2.4,1.7c-0.3,0.9-0.5,2.6-0.5,5.1
			c0,2.5,0.2,4.2,0.5,5.1c0.3,0.9,1.1,1.5,2.4,1.8c1.3,0.3,3.7,0.4,7.2,0.4c3.5,0,5.9-0.1,7.2-0.4c1.3-0.3,2.1-0.9,2.4-1.8
			c0.3-0.9,0.5-2.6,0.5-5.1C223.3,62.8,223.2,61.1,222.9,60.2z"/>
		
			<linearGradient id="SVGID_3_" gradientUnits="userSpaceOnUse" x1="254.2489" y1="29.1157" x2="254.2489" y2="3.6592" gradientTransform="matrix(4.489659e-11 -1 1 4.489659e-11 196.8855 293.0588)">
			<stop  offset="0" style="stop-color:#B47A1A"/>
			<stop  offset="5.284686e-02" style="stop-color:#B9811E"/>
			<stop  offset="0.1288" style="stop-color:#C69429"/>
			<stop  offset="0.2187" style="stop-color:#DCB33C"/>
			<stop  offset="0.3185" style="stop-color:#FADE56"/>
			<stop  offset="0.3333" style="stop-color:#FFE55A"/>
			<stop  offset="0.5161" style="stop-color:#FFEC88"/>
			<stop  offset="0.6613" style="stop-color:#FFE55A"/>
			<stop  offset="1" style="stop-color:#B47A1A"/>
		</linearGradient>
		<path class="st2" d="M226,32.6l-10,4v0.6v8h10v3.2h-25.5V36.7c0-2,0.3-3.6,1-4.6c0.7-1,1.5-1.7,2.6-2c1.1-0.3,2.5-0.5,4.2-0.5
			c1.8,0,3.3,0.3,4.6,0.8c1.3,0.5,2.2,1.6,2.6,3.2l10.5-4.3V32.6z M212.6,34.5c-0.3-0.7-0.8-1.2-1.5-1.4c-0.7-0.2-1.6-0.3-2.8-0.3
			c-1.3,0-2.2,0.1-2.9,0.3c-0.6,0.2-1.1,0.6-1.4,1.4c-0.3,0.7-0.5,1.8-0.5,3.3v7.4h9.5V38C213,36.5,212.9,35.3,212.6,34.5z"/>
	</g>
	<g>
		<linearGradient id="SVGID_4_" gradientUnits="userSpaceOnUse" x1="12.5172" y1="52.5" x2="188.8778" y2="52.5">
			<stop  offset="0" style="stop-color:#B47A1A"/>
			<stop  offset="5.284686e-02" style="stop-color:#B9811E"/>
			<stop  offset="0.1288" style="stop-color:#C69429"/>
			<stop  offset="0.2187" style="stop-color:#DCB33C"/>
			<stop  offset="0.3185" style="stop-color:#FADE56"/>
			<stop  offset="0.3333" style="stop-color:#FFE55A"/>
			<stop  offset="0.5161" style="stop-color:#FFEC88"/>
			<stop  offset="0.6613" style="stop-color:#FFE55A"/>
			<stop  offset="1" style="stop-color:#B47A1A"/>
		</linearGradient>
		<rect x="12.5" y="16.4" class="st3" width="176.4" height="72.2"/>
	</g>
	<g>
		
			<radialGradient id="SVGID_5_" cx="36.0394" cy="19.0075" r="5.2801" gradientTransform="matrix(3.0355 0 0 2.8116 -53.8118 0)" gradientUnits="userSpaceOnUse">
			<stop  offset="0" style="stop-color:#001A2F"/>
			<stop  offset="1" style="stop-color:#000000"/>
		</radialGradient>
		<path class="st4" d="M42.1,36.6h11.6c5.1,0,8.6,0.4,10.7,1.2c2.1,0.8,3.4,2.3,4,4.5c0.5,2.2,0.8,5.9,0.8,11.1
			c0,5.3-0.3,9-0.8,11.1c-0.6,2.2-1.9,3.7-4,4.5c-2.1,0.8-5.6,1.2-10.7,1.2H42.1V36.6z M52.9,66.4c4.1,0,6.9-0.2,8.3-0.6
			s2.3-1.4,2.8-3c0.4-1.6,0.6-4.7,0.6-9.3c0-4.5-0.2-7.6-0.6-9.3c-0.4-1.6-1.4-2.6-2.8-3.1c-1.4-0.4-4.2-0.6-8.3-0.6h-6.3v25.8H52.9
			z"/>
		
			<radialGradient id="SVGID_6_" cx="47.4825" cy="19.0075" r="5.0549" gradientTransform="matrix(3.0355 0 0 2.8116 -53.8118 0)" gradientUnits="userSpaceOnUse">
			<stop  offset="0" style="stop-color:#001A2F"/>
			<stop  offset="1" style="stop-color:#000000"/>
		</radialGradient>
		<path class="st5" d="M78.5,70.3V36.6h23.7v3.9H83v10.8h16.6v3.9H83v11.1h19.1v3.9H78.5z"/>
		
			<radialGradient id="SVGID_7_" cx="58.3132" cy="19.0075" r="5.736" gradientTransform="matrix(3.0355 0 0 2.8116 -53.8118 0)" gradientUnits="userSpaceOnUse">
			<stop  offset="0" style="stop-color:#001A2F"/>
			<stop  offset="1" style="stop-color:#000000"/>
		</radialGradient>
		<path class="st6" d="M135.1,70.3l-3.7-9H115l-3.7,9h-4.6l13.8-33.7h5.7l13.7,33.7H135.1z M123.2,41.1H123l-6.7,16.2h13.6
			L123.2,41.1z"/>
		
			<radialGradient id="SVGID_8_" cx="69.5607" cy="19.0075" r="4.9217" gradientTransform="matrix(3.0355 0 0 2.8116 -53.8118 0)" gradientUnits="userSpaceOnUse">
			<stop  offset="0" style="stop-color:#001A2F"/>
			<stop  offset="1" style="stop-color:#000000"/>
		</radialGradient>
		<path class="st7" d="M146.6,70.3V36.6h4.5v29.6h17v4.1H146.6z"/>
	</g>
	<g>
		<linearGradient id="SVGID_9_" gradientUnits="userSpaceOnUse" x1="257.2314" y1="52.9954" x2="284.1862" y2="52.9954">
			<stop  offset="0" style="stop-color:#B47A1A"/>
			<stop  offset="5.284686e-02" style="stop-color:#B9811E"/>
			<stop  offset="0.1288" style="stop-color:#C69429"/>
			<stop  offset="0.2187" style="stop-color:#DCB33C"/>
			<stop  offset="0.3185" style="stop-color:#FADE56"/>
			<stop  offset="0.3333" style="stop-color:#FFE55A"/>
			<stop  offset="0.5161" style="stop-color:#FFEC88"/>
			<stop  offset="0.6613" style="stop-color:#FFE55A"/>
			<stop  offset="1" style="stop-color:#B47A1A"/>
		</linearGradient>
		<path class="st8" d="M280,69.8l-18.4-25.8h-0.2v25.8h-4.2V36.1h4.5l18.1,25.2h0.2V36.1h4.2v33.7H280z"/>
		<linearGradient id="SVGID_10_" gradientUnits="userSpaceOnUse" x1="293.1711" y1="52.9954" x2="321.7595" y2="52.9954">
			<stop  offset="0" style="stop-color:#B47A1A"/>
			<stop  offset="5.284686e-02" style="stop-color:#B9811E"/>
			<stop  offset="0.1288" style="stop-color:#C69429"/>
			<stop  offset="0.2187" style="stop-color:#DCB33C"/>
			<stop  offset="0.3185" style="stop-color:#FADE56"/>
			<stop  offset="0.3333" style="stop-color:#FFE55A"/>
			<stop  offset="0.5161" style="stop-color:#FFEC88"/>
			<stop  offset="0.6613" style="stop-color:#FFE55A"/>
			<stop  offset="1" style="stop-color:#B47A1A"/>
		</linearGradient>
		<path class="st9" d="M297.6,68.9c-1.9-0.9-3.1-2.4-3.7-4.6c-0.5-2.2-0.8-6-0.8-11.3c0-5.3,0.2-9.1,0.8-11.3
			c0.5-2.2,1.8-3.7,3.7-4.6c1.9-0.9,5.2-1.3,9.8-1.3c4.6,0,7.9,0.4,9.8,1.3c1.9,0.9,3.2,2.4,3.7,4.6c0.5,2.2,0.8,6,0.8,11.3
			c0,5.3-0.3,9.1-0.8,11.3c-0.5,2.2-1.8,3.7-3.7,4.6c-2,0.9-5.2,1.3-9.8,1.3C302.8,70.2,299.6,69.8,297.6,68.9z M314.5,65.7
			c1.2-0.4,2-1.5,2.4-3.2c0.4-1.7,0.6-4.9,0.6-9.5c0-4.6-0.2-7.8-0.6-9.5s-1.2-2.7-2.4-3.2s-3.6-0.6-7-0.6c-3.4,0-5.8,0.2-7,0.6
			c-1.2,0.4-2.1,1.5-2.4,3.2s-0.5,4.9-0.5,9.5c0,4.6,0.2,7.8,0.5,9.5c0.4,1.7,1.2,2.7,2.4,3.2c1.2,0.4,3.6,0.6,7,0.6
			C310.9,66.3,313.2,66.1,314.5,65.7z"/>
		<linearGradient id="SVGID_11_" gradientUnits="userSpaceOnUse" x1="342.6253" y1="52.9954" x2="368.5652" y2="52.9954">
			<stop  offset="0" style="stop-color:#B47A1A"/>
			<stop  offset="5.284686e-02" style="stop-color:#B9811E"/>
			<stop  offset="0.1288" style="stop-color:#C69429"/>
			<stop  offset="0.2187" style="stop-color:#DCB33C"/>
			<stop  offset="0.3185" style="stop-color:#FADE56"/>
			<stop  offset="0.3333" style="stop-color:#FFE55A"/>
			<stop  offset="0.5161" style="stop-color:#FFEC88"/>
			<stop  offset="0.6613" style="stop-color:#FFE55A"/>
			<stop  offset="1" style="stop-color:#B47A1A"/>
		</linearGradient>
		<path class="st10" d="M342.6,36.1h11.1c4.9,0,8.2,0.4,10.2,1.2c2,0.8,3.3,2.3,3.8,4.5c0.5,2.2,0.8,5.9,0.8,11.1
			c0,5.3-0.3,9-0.8,11.1c-0.5,2.2-1.8,3.7-3.8,4.5c-2,0.8-5.4,1.2-10.2,1.2h-11.1V36.1z M353,65.9c3.9,0,6.6-0.2,8-0.6
			s2.3-1.4,2.7-3c0.4-1.6,0.6-4.7,0.6-9.3c0-4.5-0.2-7.6-0.6-9.3c-0.4-1.6-1.3-2.6-2.7-3.1c-1.4-0.4-4-0.6-7.9-0.6h-6v25.8H353z"/>
		<linearGradient id="SVGID_12_" gradientUnits="userSpaceOnUse" x1="377.5501" y1="52.9954" x2="400.2475" y2="52.9954">
			<stop  offset="0" style="stop-color:#B47A1A"/>
			<stop  offset="5.284686e-02" style="stop-color:#B9811E"/>
			<stop  offset="0.1288" style="stop-color:#C69429"/>
			<stop  offset="0.2187" style="stop-color:#DCB33C"/>
			<stop  offset="0.3185" style="stop-color:#FADE56"/>
			<stop  offset="0.3333" style="stop-color:#FFE55A"/>
			<stop  offset="0.5161" style="stop-color:#FFEC88"/>
			<stop  offset="0.6613" style="stop-color:#FFE55A"/>
			<stop  offset="1" style="stop-color:#B47A1A"/>
		</linearGradient>
		<path class="st11" d="M377.6,69.8V36.1h22.7v3.9h-18.3v10.8h15.9v3.9h-15.9v11.1h18.3v3.9H377.6z"/>
		<linearGradient id="SVGID_13_" gradientUnits="userSpaceOnUse" x1="404.5049" y1="52.9954" x2="436.3357" y2="52.9954">
			<stop  offset="0" style="stop-color:#B47A1A"/>
			<stop  offset="5.284686e-02" style="stop-color:#B9811E"/>
			<stop  offset="0.1288" style="stop-color:#C69429"/>
			<stop  offset="0.2187" style="stop-color:#DCB33C"/>
			<stop  offset="0.3185" style="stop-color:#FADE56"/>
			<stop  offset="0.3333" style="stop-color:#FFE55A"/>
			<stop  offset="0.5161" style="stop-color:#FFEC88"/>
			<stop  offset="0.6613" style="stop-color:#FFE55A"/>
			<stop  offset="1" style="stop-color:#B47A1A"/>
		</linearGradient>
		<path class="st12" d="M431.8,69.8l-3.6-9h-15.7l-3.6,9h-4.4l13.2-33.7h5.5l13.2,33.7H431.8z M420.5,40.7h-0.2l-6.4,16.2h13
			L420.5,40.7z"/>
		<linearGradient id="SVGID_14_" gradientUnits="userSpaceOnUse" x1="442.8454" y1="52.9954" x2="463.439" y2="52.9954">
			<stop  offset="0" style="stop-color:#B47A1A"/>
			<stop  offset="5.284686e-02" style="stop-color:#B9811E"/>
			<stop  offset="0.1288" style="stop-color:#C69429"/>
			<stop  offset="0.2187" style="stop-color:#DCB33C"/>
			<stop  offset="0.3185" style="stop-color:#FADE56"/>
			<stop  offset="0.3333" style="stop-color:#FFE55A"/>
			<stop  offset="0.5161" style="stop-color:#FFEC88"/>
			<stop  offset="0.6613" style="stop-color:#FFE55A"/>
			<stop  offset="1" style="stop-color:#B47A1A"/>
		</linearGradient>
		<path class="st13" d="M442.8,69.8V36.1h4.4v29.6h16.2v4.1H442.8z"/>
	</g>
</g>
</svg>
